<svg version="1.1" id="Layer_1" xmlns="http://www.w3.org/2000/svg" x="0" y="0" viewBox="0 0 136.9 200.1" xml:space="preserve"><style>.st0{fill:#fff}</style><path class="st0" d="M48.3 66.9h20c4.9 0 11.3 0 14.6 2 3.6 2.2 6.5 6.1 6.5 11.5 0 5.9-3.1 10.3-8.2 12.3v.2c6.8 1.4 10.5 6.5 10.5 13.3 0 8.1-5.8 15.8-16.7 15.8H48.3V66.9zm7.3 23.7h14.7c8.3 0 11.7-3 11.7-8.8 0-7.6-5.4-8.7-11.7-8.7H55.6v17.5zm0 25.2H74c6.3 0 10.3-3.9 10.3-9.9 0-7.2-5.8-9.2-12-9.2H55.6v19.1z"/><path class="st0" d="M110.4 94.5c0 23.1-18.8 41.9-41.9 41.9-23.1 0-41.9-18.8-41.9-41.9 0-23.1 18.8-41.9 41.9-41.9 23.1 0 41.9 18.7 41.9 41.9zM68.5 46.2c-26.7 0-48.3 21.6-48.3 48.3 0 26.7 21.6 48.3 48.3 48.3 26.7 0 48.3-21.6 48.3-48.3-.1-26.7-21.7-48.3-48.3-48.3zM20.3 152.9h96.3v6.3H20.3zM113.6 145.9h.3c.1 0 .2 0 .3-.1.1 0 .2-.1.2-.2.1-.1.1-.2.1-.3 0-.1 0-.2-.1-.3 0-.1-.1-.1-.2-.2-.1 0-.1-.1-.2-.1h-1v1.1h.6zm.3-1.5c.4 0 .7.1.9.2.2.2.3.4.3.7 0 .3-.1.5-.3.7l-.6.3 1 1.5h-.6l-.9-1.4h-.6v1.4h-.5v-3.4h1.3zm-2.4 2.7c.1.3.3.6.5.8.2.2.5.4.8.5.3.1.6.2.9.2.3 0 .7-.1.9-.2.3-.1.5-.3.8-.5.2-.2.4-.5.5-.8.1-.3.2-.6.2-1s-.1-.7-.2-1c-.1-.3-.3-.6-.5-.8-.2-.2-.5-.4-.8-.5-.3-.1-.6-.2-.9-.2-.3 0-.7.1-.9.2-.3.1-.5.3-.8.5-.2.2-.4.5-.5.8-.1.3-.2.6-.2 1s.1.7.2 1m-.5-2.1l.6-.9c.3-.3.6-.5.9-.6.3-.1.7-.2 1.1-.2.4 0 .8.1 1.1.2.3.2.6.3.9.6.3.3.5.6.6.9.2.4.2.7.2 1.1 0 .4-.1.8-.2 1.1-.1.4-.4.7-.6.9-.3.3-.6.5-.9.6-.4.1-.7.2-1.1.2-.4 0-.8-.1-1.1-.2-.4-.1-.7-.3-.9-.6-.3-.3-.5-.6-.6-.9-.2-.3-.2-.7-.2-1.1 0-.4 0-.8.2-1.1M32 25c-.2-.4-.5-.7-.9-1-.3-.3-.7-.5-1.2-.6-.4-.2-.9-.2-1.4-.2-.9 0-1.6.2-2.2.5-.5.3-1 .7-1.3 1.3-.4.6-.6 1.2-.8 1.9-.2.7-.3 1.5-.3 2.2 0 .7.1 1.4.3 2.1.2.7.4 1.3.8 1.9.4.6.9 1 1.5 1.3.6.3 1.3.5 2.2.5 1.2 0 2.1-.4 2.7-1.1.7-.7 1.1-1.7 1.2-2.8h3.7c-.1 1.1-.3 2.1-.8 3-.4.9-.9 1.6-1.6 2.2-.7.6-1.4 1.1-2.3 1.4-.9.3-1.9.5-3 .5-1.3 0-2.5-.2-3.6-.7-1.1-.5-2-1.1-2.7-1.9-.7-.8-1.3-1.8-1.7-2.9-.4-1.1-.6-2.3-.6-3.5 0-1.3.2-2.5.6-3.6.4-1.1 1-2.1 1.7-2.9.7-.8 1.6-1.5 2.7-2s2.3-.7 3.6-.7c1 0 1.9.1 2.7.4.9.3 1.6.7 2.3 1.2.7.5 1.2 1.2 1.7 2 .4.8.7 1.7.8 2.7h-3.7c0-.5-.2-.9-.4-1.2zM41.3 34.7c.5.5 1.3.8 2.2.8.7 0 1.3-.2 1.8-.5s.8-.7.9-1.1h3.1c-.5 1.5-1.2 2.6-2.2 3.2-1 .7-2.2 1-3.7 1-1 0-1.9-.2-2.7-.5-.8-.3-1.5-.8-2-1.4-.6-.6-1-1.3-1.3-2.1-.3-.8-.5-1.7-.5-2.7 0-.9.2-1.8.5-2.6s.7-1.5 1.3-2.1c.6-.6 1.2-1.1 2-1.4.8-.3 1.7-.5 2.6-.5 1.1 0 2 .2 2.8.6.8.4 1.5 1 2 1.7s.9 1.5 1.1 2.4c.2.9.3 1.8.2 2.8h-9.1c.2 1.1.4 1.9 1 2.4zm3.9-6.6c-.4-.5-1-.7-1.9-.7-.6 0-1 .1-1.4.3-.4.2-.7.4-.9.7-.2.3-.4.6-.5.9-.1.3-.1.6-.2.8H46c-.1-.9-.4-1.6-.8-2zM54.4 25.1v2.3c.2-.4.4-.8.7-1.1.3-.3.6-.6 1-.9.4-.2.7-.4 1.1-.5.4-.1.8-.2 1.3-.2.2 0 .5 0 .8.1V28c-.2 0-.4-.1-.6-.1H58c-.6 0-1.2.1-1.6.3-.4.2-.8.5-1.1.9-.3.4-.5.8-.6 1.3-.1.5-.2 1-.2 1.6v5.7H51V25.1h3.4zM68.5 25.1v2.3H66v6.2c0 .6.1 1 .3 1.2.2.2.6.3 1.2.3h.6c.2 0 .3 0 .5-.1v2.7c-.3 0-.6.1-1 .1h-1c-.5 0-1 0-1.5-.1s-.9-.2-1.3-.4-.7-.5-.9-.9c-.2-.4-.3-.9-.3-1.5v-7.4h-2.1v-2.3h2.1v-3.8h3.5v3.8h2.4zM70.5 23.2v-2.9H74v2.9h-3.5zm3.5 1.9v12.6h-3.5V25.1H74zM75.3 27.5v-2.3h2.1v-1c0-1.1.3-2 1-2.8.7-.7 1.8-1.1 3.2-1.1h.9c.3 0 .6 0 .9.1V23c-.4 0-.8-.1-1.3-.1s-.8.1-1 .3c-.2.2-.3.6-.3 1.1v.8h2.4v2.3h-2.4v10.3h-3.5V27.5h-2zM85.6 23.2v-2.9h3.5v2.9h-3.5zm3.5 1.9v12.6h-3.5V25.1h3.5zM94.5 34.7c.5.5 1.3.8 2.2.8.7 0 1.3-.2 1.8-.5s.8-.7.9-1.1h3c-.5 1.5-1.2 2.6-2.2 3.2-1 .7-2.2 1-3.7 1-1 0-1.9-.2-2.7-.5-.8-.3-1.5-.8-2-1.4-.6-.6-1-1.3-1.3-2.1-.3-.8-.5-1.7-.5-2.7 0-.9.2-1.8.5-2.6s.7-1.5 1.3-2.1c.6-.6 1.2-1.1 2-1.4.8-.3 1.7-.5 2.6-.5 1.1 0 2 .2 2.8.6.8.4 1.5 1 2 1.7s.9 1.5 1.1 2.4c.2.9.3 1.8.2 2.8h-9.1c.3 1.1.6 1.9 1.1 2.4zm3.9-6.6c-.4-.5-1-.7-1.9-.7-.6 0-1 .1-1.4.3-.4.2-.7.4-.9.7-.2.3-.4.6-.5.9-.1.3-.1.6-.2.8h5.6c.1-.9-.2-1.6-.7-2zM113.3 36.1c-.4.7-.9 1.2-1.6 1.5-.7.3-1.4.5-2.2.5-.9 0-1.8-.2-2.5-.5-.7-.4-1.3-.9-1.8-1.5s-.8-1.3-1-2.2c-.2-.8-.4-1.7-.4-2.5s.1-1.7.4-2.5c.2-.8.6-1.5 1-2.1.5-.6 1-1.1 1.7-1.5.7-.4 1.5-.5 2.4-.5.7 0 1.5.2 2.1.5.7.3 1.2.8 1.6 1.4v-6.3h3.5v17.4h-3.3l.1-1.7zm-.2-6.2c-.1-.5-.3-.9-.5-1.3s-.5-.7-.9-.9c-.4-.2-.8-.3-1.4-.3s-1 .1-1.4.3c-.4.2-.7.5-.9.9-.2.4-.4.8-.5 1.3-.1.5-.2 1-.2 1.5s.1 1 .2 1.5.3.9.5 1.3c.3.4.6.7 1 .9.4.2.8.4 1.4.4.6 0 1-.1 1.4-.3.4-.2.7-.5.9-.9.2-.4.4-.8.5-1.3.1-.5.1-1 .1-1.5 0-.6-.1-1.1-.2-1.6z"/><g><path class="st0" d="M28.8 171.7c-.2-1.2-1.3-2.1-2.7-2.1-2.4 0-3.3 2.1-3.3 4.2 0 2 .9 4.1 3.3 4.1 1.6 0 2.6-1.1 2.8-2.7h2.6c-.3 3.1-2.4 5-5.4 5-3.8 0-6-2.8-6-6.4 0-3.6 2.2-6.5 6-6.5 2.7 0 5 1.6 5.3 4.4h-2.6zM37.1 170.7c2.8 0 4.6 1.9 4.6 4.7 0 2.8-1.8 4.7-4.6 4.7s-4.6-1.9-4.6-4.7c0-2.9 1.8-4.7 4.6-4.7zm0 7.5c1.7 0 2.2-1.4 2.2-2.8s-.5-2.9-2.2-2.9c-1.6 0-2.1 1.4-2.1 2.9 0 1.4.5 2.8 2.1 2.8zM43.2 170.9h2.3v1.6c.4-1.1 1.6-1.9 2.8-1.9.2 0 .4 0 .5.1v2.3c-.2-.1-.6-.1-.9-.1-1.8 0-2.4 1.3-2.4 2.9v4h-2.4v-8.9zM49.9 170.9h2.3v1.1c.6-.9 1.5-1.4 2.6-1.4 2.8 0 4 2.2 4 4.8 0 2.4-1.3 4.6-3.9 4.6-1.1 0-2.1-.5-2.7-1.3v4.2h-2.4v-12zm6.6 4.5c0-1.4-.6-2.9-2.1-2.9-1.6 0-2.1 1.4-2.1 2.9 0 1.4.5 2.8 2.1 2.8s2.1-1.4 2.1-2.8zM64.3 170.7c2.8 0 4.6 1.9 4.6 4.7 0 2.8-1.8 4.7-4.6 4.7s-4.6-1.9-4.6-4.7c0-2.9 1.8-4.7 4.6-4.7zm0 7.5c1.7 0 2.2-1.4 2.2-2.8s-.5-2.9-2.2-2.9c-1.6 0-2.1 1.4-2.1 2.9-.1 1.4.4 2.8 2.1 2.8zM70.4 170.9h2.3v1.6c.4-1.1 1.6-1.9 2.8-1.9.2 0 .4 0 .5.1v2.3c-.2-.1-.6-.1-.9-.1-1.8 0-2.4 1.3-2.4 2.9v4h-2.4v-8.9zM76.8 173.7c.1-2.3 2.2-3 4.2-3 1.8 0 3.9.4 3.9 2.5v4.6c0 .8.1 1.6.3 2h-2.5c-.1-.3-.2-.6-.2-.9-.8.8-1.9 1.1-3 1.1-1.7 0-3-.8-3-2.7 0-2 1.5-2.5 3-2.7 1.5-.2 2.9-.2 2.9-1.2s-.7-1.2-1.6-1.2c-.9 0-1.5.4-1.6 1.3h-2.4zm5.7 1.8c-.4.4-1.3.4-2 .5-.8.2-1.4.4-1.4 1.3s.7 1.1 1.5 1.1c1.9 0 2-1.5 2-2v-.9zM89.8 170.9h1.8v1.6h-1.8v4.4c0 .8.2 1 1 1 .3 0 .5 0 .8-.1v1.9c-.4.1-.9.1-1.4.1-1.5 0-2.8-.3-2.8-2.1v-5.2h-1.5v-1.6h1.5v-2.7h2.4v2.7zM95.9 169.6h-2.4v-2h2.4v2zm-2.4 1.3h2.4v8.9h-2.4v-8.9zM102.1 170.7c2.8 0 4.6 1.9 4.6 4.7 0 2.8-1.8 4.7-4.6 4.7s-4.6-1.9-4.6-4.7c0-2.9 1.8-4.7 4.6-4.7zm0 7.5c1.7 0 2.2-1.4 2.2-2.8s-.5-2.9-2.2-2.9c-1.6 0-2.1 1.4-2.1 2.9 0 1.4.5 2.8 2.1 2.8zM108.3 170.9h2.3v1.2h.1c.6-1 1.7-1.5 2.7-1.5 2.6 0 3.2 1.5 3.2 3.7v5.5h-2.4v-5c0-1.5-.4-2.2-1.6-2.2-1.3 0-1.9.7-1.9 2.5v4.7h-2.4v-8.9z"/></g></svg>